# xmcd
#
# Track frame offsets:
#	150
#	12175
#	19494
#	34305
#	42827
#	47542
#	56320
#	61682
#	73700
#	78230
#	84654
#	91972
#	96582
#	108220
#	110067
#	125065
#	139572
#	154740
#	157300
#	166447
#	178855
#	186555
#	198502
#	222747
#
# Disc length: 2996 seconds
#
# Revision: 1
# Processed by: cddbd v1.5.2PL0 Copyright (c) Steve Scherf et al.
# Submitted via: audiograbber 1.81.02
#
DISCID=5e0bb218
DTITLE=Konny Cramer - Sunshine Kids - Der große Weihnachtsplan
DYEAR=2008
DGENRE=Musical
TTITLE0=Zu Bethlehem geboren
TTITLE1=Hörszene 1
TTITLE2=Wir warten schon lange
TTITLE3=Hörszene 2
TTITLE4=Hörszene 3
TTITLE5=Gott ist gnädig
TTITLE6=Hörszene 4
TTITLE7=Er taufte ihn
TTITLE8=Hörszene 9
TTITLE9=Hörszene 6
TTITLE10=Hosianne dem Sohne Davids
TTITLE11=Hörszene 7
TTITLE12=Der König kommt
TTITLE13=Hörszene 8
TTITLE14=O du fröhliche
TTITLE15=Playbackteil
TTITLE16=Playbackteil
TTITLE17=Playbackteil
TTITLE18=Playbackteil
TTITLE19=Playbackteil
TTITLE20=Playbackteil
TTITLE21=Playbackteil
TTITLE22=Playbackteil
TTITLE23=Daten-CD
EXTD=
EXTT0=
EXTT1=
EXTT2=
EXTT3=
EXTT4=
EXTT5=
EXTT6=
EXTT7=
EXTT8=
EXTT9=
EXTT10=
EXTT11=
EXTT12=
EXTT13=
EXTT14=
EXTT15=
EXTT16=
EXTT17=
EXTT18=
EXTT19=
EXTT20=
EXTT21=
EXTT22=
EXTT23=
PLAYORDER=
